HIERARCHY
ROOT Hips
{
	OFFSET 0.000000 0.000000 0.000000
	CHANNELS 6 Xposition Yposition Zposition Xrotation Yrotation Zrotation
	JOINT Chest
	{
		OFFSET 0.000000 0.009282 11.569106
		CHANNELS 6 Xposition Yposition Zposition Xrotation Yrotation Zrotation
		JOINT Chest2
		{
			OFFSET 0.000000 -0.016863 9.269641
			CHANNELS 6 Xposition Yposition Zposition Xrotation Yrotation Zrotation
			JOINT Chest3
			{
				OFFSET 0.000000 0.000000 8.374491
				CHANNELS 6 Xposition Yposition Zposition Xrotation Yrotation Zrotation
				JOINT Chest4
				{
					OFFSET 0.000000 0.000000 8.374493
					CHANNELS 6 Xposition Yposition Zposition Xrotation Yrotation Zrotation
					JOINT Neck
					{
						OFFSET 0.000000 -0.000001 12.152554
						CHANNELS 6 Xposition Yposition Zposition Xrotation Yrotation Zrotation
						JOINT Head
						{
							OFFSET 0.000000 -0.040100 7.802319
							CHANNELS 6 Xposition Yposition Zposition Xrotation Yrotation Zrotation
							End Site
							{
								OFFSET 0.000000 -0.020946 14.853096
							}
						}
					}
					JOINT RightCollar
					{
						OFFSET -2.894404 0.000000 6.791374
						CHANNELS 6 Xposition Yposition Zposition Xrotation Yrotation Zrotation
						JOINT RightShoulder
						{
							OFFSET -13.574684 0.000000 0.000000
							CHANNELS 6 Xposition Yposition Zposition Xrotation Yrotation Zrotation
							JOINT RightElbow
							{
								OFFSET -23.923903 0.000000 0.000000
								CHANNELS 6 Xposition Yposition Zposition Xrotation Yrotation Zrotation
								JOINT RightWrist
								{
									OFFSET -19.846718 -0.012765 0.000000
									CHANNELS 6 Xposition Yposition Zposition Xrotation Yrotation Zrotation
									End Site
									{
										OFFSET -14.973145 0.000000 0.000000
									}
								}
							}
						}
					}
					JOINT LeftCollar
					{
						OFFSET 2.894404 0.000000 6.791374
						CHANNELS 6 Xposition Yposition Zposition Xrotation Yrotation Zrotation
						JOINT LeftShoulder
						{
							OFFSET 13.574684 0.000000 0.000000
							CHANNELS 6 Xposition Yposition Zposition Xrotation Yrotation Zrotation
							JOINT LeftElbow
							{
								OFFSET 23.923903 0.000000 0.000000
								CHANNELS 6 Xposition Yposition Zposition Xrotation Yrotation Zrotation
								JOINT LeftWrist
								{
									OFFSET 19.846718 -0.012765 0.000000
									CHANNELS 6 Xposition Yposition Zposition Xrotation Yrotation Zrotation
									End Site
									{
										OFFSET 14.973145 0.000000 0.000000
									}
								}
							}
						}
					}
				}
			}
		}
	}
	JOINT RightHip
	{
		OFFSET -9.469263 -0.004642 0.045487
		CHANNELS 6 Xposition Yposition Zposition Xrotation Yrotation Zrotation
		JOINT RightKnee
		{
			OFFSET 0.000000 -0.002666 -40.478676
			CHANNELS 6 Xposition Yposition Zposition Xrotation Yrotation Zrotation
			JOINT RightAnkle
			{
				OFFSET 0.000000 -0.049110 -35.224068
				CHANNELS 6 Xposition Yposition Zposition Xrotation Yrotation Zrotation
				JOINT RightToe
				{
					OFFSET 0.000000 -12.539530 -6.151390
					CHANNELS 6 Xposition Yposition Zposition Xrotation Yrotation Zrotation
					End Site
					{
						OFFSET 0.000000 -5.044995 -1.291870
					}
				}
			}
		}
	}
	JOINT LeftHip
	{
		OFFSET 9.469263 -0.004642 0.045487
		CHANNELS 6 Xposition Yposition Zposition Xrotation Yrotation Zrotation
		JOINT LeftKnee
		{
			OFFSET 0.000000 -0.002666 -40.478676
			CHANNELS 6 Xposition Yposition Zposition Xrotation Yrotation Zrotation
			JOINT LeftAnkle
			{
				OFFSET 0.000000 -0.049110 -35.224068
				CHANNELS 6 Xposition Yposition Zposition Xrotation Yrotation Zrotation
				JOINT LeftToe
				{
					OFFSET 0.000000 -12.539530 -6.151390
					CHANNELS 6 Xposition Yposition Zposition Xrotation Yrotation Zrotation
					End Site
					{
						OFFSET 0.000000 -5.044995 -1.291870
					}
				}
			}
		}
	}
}
MOTION
Frames: 5
Frame Time: 0.016667
-16.564123 15.890811 42.489761 3.948351 13.790090 -113.892141 -0.000001 0.009281 11.569099 8.047184 -0.038270 -0.436690 0.000000 -0.016864 9.269643 3.521726 -0.012679 -0.078288 -0.000000 -0.000001 8.374481 3.521727 -0.012678 -0.078286 -0.000000 -0.000004 8.374495 2.641297 -0.009057 -0.058789 0.000001 -0.000003 12.152544 15.678747 -0.838919 -1.034673 -0.000001 -0.040101 7.802311 -7.075501 -1.148106 -2.190523 -2.894404 -0.000002 6.791367 -4.702650 -5.976196 -5.348251 -13.574686 0.000000 0.000007 32.530210 -36.210087 15.424965 -23.923908 -0.000003 -0.000004 59.990323 7.235373 64.622564 -19.846722 -0.012763 0.000005 -56.112306 33.754727 94.746991 2.894404 -0.000001 6.791365 -5.845084 9.563482 -4.617234 13.574681 -0.000002 0.000017 25.952105 39.769613 -7.634783 23.923899 0.000002 -0.000012 61.446964 8.169350 -59.663082 19.846704 -0.012771 -0.000002 -35.200568 -31.539604 -94.125170 -9.469262 -0.004643 0.045486 -44.941620 13.423167 -9.963810 -0.000220 -0.007664 -40.477367 150.156381 5.779929 4.748631 -0.000542 -0.049222 -35.223549 13.355206 -9.758031 11.876808 0.000001 -12.539530 -6.151376 0.167546 0.020747 -0.057318 9.469262 -0.004642 0.045485 -38.435530 4.023086 3.142678 0.000063 -0.007002 -40.476582 128.220423 -0.236092 -1.357967 -0.001123 -0.049493 -35.223267 29.376309 -21.042522 26.722625 -0.000003 -12.539533 -6.151392 -0.118774 -0.049770 0.083363 
-16.567924 15.889359 42.485046 3.954494 13.772002 -113.890228 -0.000001 0.009281 11.569103 8.050241 -0.040808 -0.427826 -0.000001 -0.016864 9.269644 3.523803 -0.013382 -0.074592 0.000000 -0.000000 8.374494 3.523803 -0.013382 -0.074587 -0.000001 0.000000 8.374486 2.642855 -0.009607 -0.056020 -0.000001 -0.000002 12.152555 15.685709 -0.852288 -1.033372 0.000001 -0.040102 7.802319 -7.062864 -1.173022 -2.193000 -2.894406 -0.000001 6.791378 -4.701494 -5.976931 -5.346811 -13.574683 0.000001 -0.000005 32.532198 -36.218133 15.422016 -23.923901 0.000001 -0.000003 59.989709 7.225369 64.628568 -19.846722 -0.012769 0.000009 -56.115147 33.754870 94.754839 2.894404 0.000000 6.791366 -5.838137 9.558619 -4.614280 13.574685 0.000002 -0.000004 25.951075 39.764269 -7.651448 23.923899 -0.000001 -0.000001 61.441793 8.164044 -59.660063 19.846716 -0.012771 0.000004 -35.199055 -31.539594 -94.123668 -9.469265 -0.004644 0.045486 -44.948457 13.419222 -9.964684 -0.000216 -0.007663 -40.477367 150.155179 5.778066 4.751632 -0.000543 -0.049219 -35.223549 13.357193 -9.757134 11.877459 0.000004 -12.539533 -6.151371 0.165813 0.022262 -0.059161 9.469263 -0.004642 0.045484 -38.449064 4.021298 3.132453 0.000059 -0.007001 -40.476578 128.232471 -0.235725 -1.355772 -0.001125 -0.049489 -35.223270 29.371791 -21.042954 26.717873 -0.000003 -12.539529 -6.151388 -0.118331 -0.046038 0.078660 
-16.568373 15.884755 42.479942 3.942460 13.730147 -113.908315 0.000000 0.009281 11.569106 8.028370 -0.034655 -0.391355 -0.000000 -0.016863 9.269640 3.524734 -0.014306 -0.071238 0.000002 -0.000000 8.374488 3.524734 -0.014306 -0.071242 0.000000 0.000002 8.374490 2.643554 -0.010319 -0.053510 -0.000001 -0.000001 12.152546 15.694176 -0.865134 -1.033530 0.000001 -0.040095 7.802320 -7.047399 -1.196482 -2.197918 -2.894405 -0.000000 6.791371 -4.701438 -5.978418 -5.350461 -13.574686 0.000000 0.000007 32.541033 -36.222293 15.423124 -23.923897 -0.000001 0.000007 59.981601 7.224267 64.635378 -19.846718 -0.012764 0.000005 -56.121564 33.756168 94.759210 2.894402 0.000000 6.791361 -5.831333 9.556158 -4.616748 13.574683 -0.000001 0.000012 25.959920 39.754887 -7.673845 23.923895 -0.000002 0.000005 61.431240 8.161805 -59.662262 19.846725 -0.012767 0.000002 -35.207088 -31.541978 -94.122472 -9.469262 -0.004643 0.045487 -44.989329 13.402146 -9.944284 -0.000218 -0.007661 -40.477360 150.154073 5.775863 4.757745 -0.000542 -0.049218 -35.223549 13.375316 -9.746927 11.867897 0.000003 -12.539536 -6.151379 0.145389 0.018595 -0.050979 9.469263 -0.004643 0.045486 -38.504457 4.005487 3.150308 0.000058 -0.006993 -40.476570 128.241392 -0.239070 -1.353225 -0.001122 -0.049494 -35.223270 29.370237 -21.028506 26.710414 -0.000004 -12.539533 -6.151382 -0.112441 -0.048822 0.080988 
-16.569168 15.882746 42.476418 3.938775 13.703541 -113.898431 0.000000 0.009281 11.569114 8.025361 -0.035462 -0.384856 0.000001 -0.016861 9.269642 3.524768 -0.014793 -0.068869 -0.000000 0.000000 8.374497 3.524769 -0.014793 -0.068868 0.000000 -0.000001 8.374490 2.643578 -0.010698 -0.051741 0.000001 -0.000002 12.152555 15.706923 -0.876636 -1.032335 0.000001 -0.040103 7.802304 -7.023982 -1.218059 -2.199842 -2.894403 0.000001 6.791374 -4.701000 -5.979264 -5.355226 -13.574687 -0.000000 0.000005 32.546425 -36.221955 15.427722 -23.923897 -0.000005 -0.000003 59.973801 7.221080 64.643410 -19.846706 -0.012762 0.000005 -56.115574 33.759453 94.759702 2.894404 0.000000 6.791374 -5.836343 9.555646 -4.614792 13.574684 0.000000 0.000001 25.971050 39.746800 -7.689093 23.923908 -0.000005 0.000002 61.428454 8.167065 -59.662925 19.846712 -0.012770 -0.000001 -35.205343 -31.546653 -94.122500 -9.469263 -0.004644 0.045493 -45.012251 13.405190 -9.947766 -0.000213 -0.007665 -40.477379 150.154387 5.772609 4.762783 -0.000546 -0.049217 -35.223557 13.377388 -9.741798 11.863108 0.000002 -12.539536 -6.151376 0.143652 0.018505 -0.050673 9.469263 -0.004642 0.045492 -38.532536 4.008768 3.147942 0.000065 -0.006996 -40.476585 128.249151 -0.242722 -1.351681 -0.001123 -0.049494 -35.223270 29.374871 -21.040331 26.718262 -0.000004 -12.539530 -6.151392 -0.111091 -0.039764 0.069073 
-16.570332 15.879894 42.473289 3.936553 13.677276 -113.888036 0.000001 0.009282 11.569099 8.022470 -0.038174 -0.379782 -0.000000 -0.016863 9.269644 3.523988 -0.015602 -0.067867 0.000000 -0.000000 8.374494 3.523989 -0.015602 -0.067867 0.000000 0.000001 8.374505 2.642993 -0.011311 -0.050993 0.000000 -0.000002 12.152550 15.723591 -0.887151 -1.029237 0.000002 -0.040106 7.802313 -6.993254 -1.238600 -2.197884 -2.894404 -0.000000 6.791365 -4.712299 -5.984260 -5.363551 -13.574684 -0.000000 0.000005 32.546709 -36.213998 15.428916 -23.923895 -0.000004 0.000001 59.980583 7.215515 64.646436 -19.846703 -0.012759 0.000006 -56.116039 33.755881 94.759538 2.894404 0.000000 6.791367 -5.842578 9.556239 -4.613975 13.574688 0.000001 -0.000005 25.966779 39.747480 -7.688102 23.923908 -0.000003 -0.000004 61.434792 8.168978 -59.660835 19.846714 -0.012770 -0.000006 -35.200121 -31.545539 -94.119747 -9.469262 -0.004640 0.045482 -45.034060 13.408480 -9.957788 -0.000215 -0.007667 -40.477375 150.155862 5.771702 4.766821 -0.000541 -0.049222 -35.223549 13.378671 -9.735669 11.853563 0.000004 -12.539531 -6.151377 0.142225 0.017586 -0.048136 9.469265 -0.004641 0.045485 -38.563791 4.008872 3.139622 0.000062 -0.006994 -40.476582 128.257279 -0.245248 -1.352585 -0.001124 -0.049494 -35.223274 29.376271 -21.038630 26.721249 -0.000004 -12.539533 -6.151384 -0.109931 -0.037053 0.064656 
